<svg width="97.000000" height="51.000000" viewBox="0 0 97 51" fill="none" xmlns="http://www.w3.org/2000/svg" xmlns:xlink="http://www.w3.org/1999/xlink">
	<desc>
			Created with Pixso.
	</desc>
	<defs/>
	<path id="Fill 1" d="M35.57 -0.41C35.01 -0.41 34.57 0.04 34.57 0.59L34.57 4.86C34.57 5.41 35.01 5.86 35.57 5.86L71.89 5.86C82.02 5.86 89.97 13.66 89.97 23.75L89.97 23.75C89.97 24.04 90.2 24.27 90.49 24.27L95.75 24.27C96.04 24.27 96.27 24.04 96.27 23.75L96.27 23.75C96.27 10.26 85.43 -0.41 71.89 -0.41L35.57 -0.41Z" fill="#6B7B84" fill-opacity="1.000000" fill-rule="evenodd"/>
	<path id="Fill 1" d="M34.57 4.86C34.57 5.41 35.01 5.86 35.57 5.86L71.89 5.86C82.02 5.86 89.97 13.66 89.97 23.75C89.97 24.04 90.2 24.27 90.49 24.27L95.75 24.27C96.04 24.27 96.27 24.04 96.27 23.75C96.27 10.26 85.43 -0.41 71.89 -0.41L35.57 -0.41C35.01 -0.41 34.57 0.04 34.57 0.59L34.57 4.86Z" stroke="#80949F" stroke-opacity="1.000000" stroke-width="0.500000"/>
	<path id="Fill 3" d="M6.1 24.71L6.1 24.71C6.1 24.47 5.91 24.27 5.66 24.27L0.16 24.27C-0.08 24.27 -0.28 24.47 -0.28 24.71L-0.28 24.71C-0.28 38.36 9.94 49.63 23.16 50.36L65.51 50.4C66.06 50.4 66.51 49.95 66.51 49.4L66.51 44.82C66.51 44.27 66.06 43.82 65.51 43.82L24.62 43.82C14.39 43.79 6.1 35.28 6.1 24.71Z" fill="#6B7B84" fill-opacity="1.000000" fill-rule="evenodd"/>
	<path id="Fill 3" d="M0.16 24.27C-0.08 24.27 -0.28 24.47 -0.28 24.71C-0.28 38.36 9.94 49.63 23.16 50.36L65.51 50.4C66.06 50.4 66.51 49.95 66.51 49.4L66.51 44.82C66.51 44.27 66.06 43.82 65.51 43.82L24.62 43.82C14.39 43.79 6.1 35.28 6.1 24.71C6.1 24.47 5.91 24.27 5.66 24.27L0.16 24.27Z" stroke="#80949F" stroke-opacity="1.000000" stroke-width="0.500000"/>
	<path id="Fill 5" d="M27.14 38.79C29.88 38.79 32.16 38.26 34.41 37.16L34.57 37.02L34.57 29.18L33.72 30.26C32.1 32.03 29.92 33.01 27.46 33.01C22.86 33.01 18.25 30.04 18.25 24.37C18.25 20.08 21.43 15.53 27.29 15.53C28.46 15.53 31.31 15.8 33.72 18.36L34.57 19.41L34.57 11.61L34.42 11.46C32.12 10.31 29.78 9.75 27.11 9.75C22.54 9.75 18.98 10.95 16.14 13.42C14.34 14.97 11.34 18.44 11.34 24.29C11.34 28.61 12.87 31.98 16.16 34.91C19.22 37.59 22.61 38.79 27.14 38.79Z" fill="#6B7B84" fill-opacity="1.000000" fill-rule="evenodd"/>
	<path id="Fill 5" d="M34.41 37.16L34.57 37.02L34.57 29.18L33.72 30.26C32.1 32.03 29.92 33.01 27.46 33.01C22.86 33.01 18.25 30.04 18.25 24.37C18.25 20.08 21.43 15.53 27.29 15.53C28.46 15.53 31.31 15.8 33.72 18.36L34.57 19.41L34.57 11.61L34.42 11.46C32.12 10.31 29.78 9.75 27.11 9.75C22.54 9.75 18.98 10.95 16.14 13.42C14.34 14.97 11.34 18.44 11.34 24.29C11.34 28.61 12.87 31.98 16.16 34.91C19.22 37.59 22.61 38.79 27.14 38.79C29.88 38.79 32.16 38.26 34.41 37.16Z" stroke="#80949F" stroke-opacity="1.000000" stroke-width="0.500000"/>
	<mask id="mask_0_727" fill="white">
		<path id="Fill 6" d="M57.4941 26.1299C55.7378 27.8857 53.2085 28.8179 49.9771 28.8179L47.0366 28.8179L47.0366 38.7925L40.3779 38.7925L40.3779 9.75537L49.1323 9.75537C52.4141 9.75537 54.7407 10.2329 56.9214 12.1436C59.5815 14.5066 59.978 17.7703 59.978 19.4436C59.978 21.0073 59.6548 23.9736 57.4941 26.1299ZM46.9111 16.2888L48.2754 16.2888C49.5269 16.2888 50.9531 16.3572 52.0327 17.093C52.5601 17.4695 53.4443 18.3413 53.4443 19.9246C53.4443 21.0945 52.9272 22.1438 52.0732 22.7983C51.0342 23.5527 49.8086 23.55 48.7925 23.5479C48.7378 23.5476 48.6841 23.5476 48.6309 23.5476L46.9111 23.5476L46.9111 16.2888Z" clip-rule="evenodd" fill="" fill-opacity="1.000000" fill-rule="evenodd"/>
	</mask>
	<path id="Fill 6" d="M57.4941 26.1299C55.7378 27.8857 53.2085 28.8179 49.9771 28.8179L47.0366 28.8179L47.0366 38.7925L40.3779 38.7925L40.3779 9.75537L49.1323 9.75537C52.4141 9.75537 54.7407 10.2329 56.9214 12.1436C59.5815 14.5066 59.978 17.7703 59.978 19.4436C59.978 21.0073 59.6548 23.9736 57.4941 26.1299ZM46.9111 16.2888L48.2754 16.2888C49.5269 16.2888 50.9531 16.3572 52.0327 17.093C52.5601 17.4695 53.4443 18.3413 53.4443 19.9246C53.4443 21.0945 52.9272 22.1438 52.0732 22.7983C51.0342 23.5527 49.8086 23.55 48.7925 23.5479C48.7378 23.5476 48.6841 23.5476 48.6309 23.5476L46.9111 23.5476L46.9111 16.2888Z" clip-rule="evenodd" fill="#6B7B84" fill-opacity="1.000000" fill-rule="evenodd" mask="url(#mask_0_727)"/>
	<path id="Fill 6" d="M57.6709 26.3066Q56.3062 27.6711 54.3735 28.3674Q52.4297 29.0679 49.9771 29.0679L47.0366 29.0679L47.0366 28.8179L47.2866 28.8179L47.2866 39.0425L40.1279 39.0425L40.1279 9.50537L49.1323 9.50537Q50.4414 9.50537 51.4531 9.61108Q52.5771 9.72876 53.5078 9.99243Q54.4985 10.2729 55.3652 10.7446Q56.2593 11.2312 57.0859 11.9556Q58.897 13.564 59.6846 15.9746Q59.9858 16.896 60.1221 17.8955Q60.228 18.6726 60.228 19.4436Q60.228 21.116 59.7866 22.6343Q59.147 24.8337 57.6709 26.3069L57.6709 26.3066ZM57.3179 25.9529Q58.7026 24.5708 59.3062 22.4946Q59.728 21.0447 59.728 19.4436Q59.728 18.7065 59.6265 17.9631Q59.4966 17.0083 59.2095 16.1299Q58.4634 13.8479 56.7563 12.3315Q55.9717 11.644 55.1265 11.1838Q54.3086 10.7388 53.3716 10.4734Q52.4819 10.2214 51.4014 10.1084Q50.415 10.0054 49.1323 10.0054L40.3779 10.0054L40.3779 9.75537L40.6279 9.75537L40.6279 38.7925L40.3779 38.7925L40.3779 38.5425L47.0366 38.5425L47.0366 38.7925L46.7866 38.7925L46.7866 28.5679L49.9771 28.5679Q52.3423 28.5679 54.2041 27.8972Q56.0317 27.2385 57.3174 25.9531L57.3179 25.9529ZM46.9111 16.0388L48.2754 16.0388Q48.8413 16.0388 49.2524 16.0613Q49.8037 16.0916 50.2603 16.1685Q51.4023 16.3606 52.1738 16.8865Q52.7686 17.3113 53.1489 17.9246Q53.6943 18.8047 53.6943 19.9246Q53.6943 20.8528 53.3042 21.6631Q52.918 22.4658 52.2256 22.9968L52.2227 22.9988L52.2202 23.0007Q51.4849 23.5344 50.4653 23.7034Q50.0757 23.7681 49.5981 23.7876Q49.3184 23.7991 48.792 23.7979L48.6304 23.7976L46.6611 23.7976L46.6611 16.0388L46.9111 16.0388ZM46.9111 16.5388L46.9111 16.2888L47.1611 16.2888L47.1611 23.5476L46.9111 23.5476L46.9111 23.2976L48.6313 23.2976L48.793 23.2979Q49.3091 23.2991 49.5776 23.2878Q50.0244 23.2695 50.3833 23.2102Q51.2866 23.0605 51.9263 22.5959L52.0732 22.7983L51.9214 22.5999Q52.519 22.1416 52.854 21.4463Q53.1943 20.7388 53.1943 19.9246Q53.1943 18.947 52.7236 18.188Q52.3965 17.6599 51.8921 17.2996Q51.2114 16.8354 50.1772 16.6614Q49.4482 16.5388 48.2754 16.5388L46.9111 16.5388Z" fill="#80949F" fill-opacity="1.000000" fill-rule="nonzero"/>
	<path id="Fill 7" d="M79.95 23.46C78.5 22.18 76.48 21.44 74.19 20.67C72.55 20.1 71.65 19.78 71.05 19.24C70.58 18.83 70.37 18.4 70.37 17.82C70.37 16.56 71.23 15.21 73.64 15.21C75.28 15.21 76.65 15.91 77.71 17.29L78.14 17.84L81.65 13.36L81.33 13.04C79.18 10.89 76.35 9.75 73.14 9.75C66.66 9.75 63.76 13.97 63.76 18.14C63.76 20.38 64.56 22.19 66.13 23.51C67.54 24.72 69.25 25.39 70.9 25.95L71.09 26.01C72.55 26.49 74.06 26.99 74.96 27.8C75.59 28.38 75.87 29 75.87 29.83C75.87 31.73 74.37 33.01 72.15 33.01C70.39 33.01 68.07 32.15 66.84 29.72L66.52 29.09L62.15 33.14L62.41 33.5C63.8 35.48 66.95 38.79 72.35 38.79C78.31 38.79 82.48 34.96 82.48 29.47C82.48 26.33 81.1 24.47 79.95 23.46Z" fill="#6B7B84" fill-opacity="1.000000" fill-rule="evenodd"/>
	<path id="Fill 7" d="M74.19 20.67C72.55 20.1 71.65 19.78 71.05 19.24C70.58 18.83 70.37 18.4 70.37 17.82C70.37 16.56 71.23 15.21 73.64 15.21C75.28 15.21 76.65 15.91 77.71 17.29L78.14 17.84L81.65 13.36L81.33 13.04C79.18 10.89 76.35 9.75 73.14 9.75C66.66 9.75 63.76 13.97 63.76 18.14C63.76 20.38 64.56 22.19 66.13 23.51C67.54 24.72 69.25 25.39 70.9 25.95L71.09 26.01C72.55 26.49 74.06 26.99 74.96 27.8C75.59 28.38 75.87 29 75.87 29.83C75.87 31.73 74.37 33.01 72.15 33.01C70.39 33.01 68.07 32.15 66.84 29.72L66.52 29.09L62.15 33.14L62.41 33.5C63.8 35.48 66.95 38.79 72.35 38.79C78.31 38.79 82.48 34.96 82.48 29.47C82.48 26.33 81.1 24.47 79.95 23.46C78.5 22.18 76.48 21.44 74.19 20.67Z" stroke="#80949F" stroke-opacity="1.000000" stroke-width="0.500000"/>
</svg>
