<svg width="24.000000" height="24.000000" viewBox="0 0 24 24" fill="none" xmlns="http://www.w3.org/2000/svg" xmlns:xlink="http://www.w3.org/1999/xlink">
	<desc>
			Created with Pixso.
	</desc>
	<defs/>
	<path id="icon" d="M12 10L14.5 7.5C14.7764 7.22388 15.2241 7.22388 15.5 7.5C15.7764 7.77612 15.7764 8.22388 15.5 8.5L12.707 11.293C12.3169 11.6836 11.6836 11.6836 11.293 11.293L8.5 8.5C8.22412 8.22388 8.22412 7.77612 8.5 7.5C8.77637 7.22388 9.22412 7.22388 9.5 7.5L12 10ZM14.5 13.5L12 16L9.5 13.5C9.22412 13.2239 8.77637 13.2239 8.5 13.5C8.22412 13.7761 8.22412 14.2239 8.5 14.5L11.293 17.293C11.6836 17.6836 12.3169 17.6836 12.707 17.293L15.5 14.5C15.7764 14.2239 15.7764 13.7761 15.5 13.5C15.2241 13.2239 14.7764 13.2239 14.5 13.5Z" clip-rule="evenodd" fill="#41F6D7" fill-opacity="1.000000" fill-rule="evenodd"/>
</svg>
